<?xml version="1.0" encoding="UTF-8"?>
<svg xmlns="http://www.w3.org/2000/svg" width="800" height="620" viewBox="0 0 800 620" role="img" aria-labelledby="title desc">
<title id="title">IND-15 · Caza de puertas</title><desc id="desc">Ejercicio de tecnificación de fútbol para 1 jugador: Cruza todas las puertas en orden variable. Antes de cada salida levanta la cabeza y elige la siguiente.</desc>
<defs><marker id="arrow" markerWidth="8" markerHeight="8" refX="6" refY="3" orient="auto"><path d="M0 0L6 3L0 6Z" fill="context-stroke"/></marker><pattern id="grass" width="80" height="80" patternUnits="userSpaceOnUse"><rect width="80" height="80" fill="#168447"/><rect width="40" height="80" fill="#197a43" opacity=".55"/></pattern></defs>
<rect width="800" height="620" rx="24" fill="#f3f6f8"/><text x="40" y="48" font-family="Arial,sans-serif" font-size="18" font-weight="700" fill="#1778d4">IND-15</text><text x="40" y="82" font-family="Arial,sans-serif" font-size="30" font-weight="800" fill="#102a43">Caza de puertas</text><rect x="625" y="36" width="135" height="32" rx="16" fill="#e0efff"/><text x="692" y="57" text-anchor="middle" font-family="Arial,sans-serif" font-size="13" font-weight="700" fill="#145da0">REACCIÓN</text>
<g transform="translate(120 105)"><rect width="560" height="380" rx="12" fill="url(#grass)" stroke="#0f5933" stroke-width="5"/><path d="M20 20H540V360H20Z" fill="none" stroke="white" opacity=".55" stroke-width="2"/><g transform="translate(90 290)"><ellipse cy="27" rx="17" ry="6" fill="#102a43" opacity=".25"/><circle cy="-11" r="9" fill="#f2c7a5" stroke="white" stroke-width="2"/><path d="M-12 0Q0-8 12 0L10 20Q0 26-10 20Z" fill="#1778d4" stroke="white" stroke-width="2"/><path d="M-9 5l-12 11M9 5l12 11M-6 21l-8 18M6 21l8 18" fill="none" stroke="#1778d4" stroke-width="6" stroke-linecap="round"/><rect x="-14" y="-34" width="28" height="16" rx="8" fill="#102a43"/><text y="-22" text-anchor="middle" font-family="Arial,sans-serif" font-size="11" font-weight="800" fill="white">1</text></g><g transform="translate(115 300)"><circle r="13" fill="#fff" opacity=".22"/><circle r="9" fill="white" stroke="#16202a" stroke-width="2"/><path d="M0-4 4-1 3 4-2 6-6 1-3-3Z" fill="#16202a"/><path d="M-6 1-9 4M4-1 8-4M3 4l4 4" stroke="#16202a" stroke-width="1.4"/></g><g><ellipse cx="160" cy="133" rx="14" ry="4" fill="#102a43" opacity=".25"/><path d="M153 128 L160 110 L167 128Z" fill="#ef4444" stroke="#5b2b00" stroke-width="2"/><path d="M149 129h22v4h-22z" fill="#ef4444" stroke="#5b2b00" stroke-width="2"/><path d="M156 121h8" stroke="white" stroke-width="2" opacity=".9"/></g><g><ellipse cx="160" cy="178" rx="14" ry="4" fill="#102a43" opacity=".25"/><path d="M153 173 L160 155 L167 173Z" fill="#ef4444" stroke="#5b2b00" stroke-width="2"/><path d="M149 174h22v4h-22z" fill="#ef4444" stroke="#5b2b00" stroke-width="2"/><path d="M156 166h8" stroke="white" stroke-width="2" opacity=".9"/></g><g><ellipse cx="280" cy="263" rx="14" ry="4" fill="#102a43" opacity=".25"/><path d="M273 258 L280 240 L287 258Z" fill="#3b82f6" stroke="#5b2b00" stroke-width="2"/><path d="M269 259h22v4h-22z" fill="#3b82f6" stroke="#5b2b00" stroke-width="2"/><path d="M276 251h8" stroke="white" stroke-width="2" opacity=".9"/></g><g><ellipse cx="280" cy="308" rx="14" ry="4" fill="#102a43" opacity=".25"/><path d="M273 303 L280 285 L287 303Z" fill="#3b82f6" stroke="#5b2b00" stroke-width="2"/><path d="M269 304h22v4h-22z" fill="#3b82f6" stroke="#5b2b00" stroke-width="2"/><path d="M276 296h8" stroke="white" stroke-width="2" opacity=".9"/></g><g><ellipse cx="410" cy="123" rx="14" ry="4" fill="#102a43" opacity=".25"/><path d="M403 118 L410 100 L417 118Z" fill="#facc15" stroke="#5b2b00" stroke-width="2"/><path d="M399 119h22v4h-22z" fill="#facc15" stroke="#5b2b00" stroke-width="2"/><path d="M406 111h8" stroke="white" stroke-width="2" opacity=".9"/></g><g><ellipse cx="410" cy="168" rx="14" ry="4" fill="#102a43" opacity=".25"/><path d="M403 163 L410 145 L417 163Z" fill="#facc15" stroke="#5b2b00" stroke-width="2"/><path d="M399 164h22v4h-22z" fill="#facc15" stroke="#5b2b00" stroke-width="2"/><path d="M406 156h8" stroke="white" stroke-width="2" opacity=".9"/></g><g><ellipse cx="430" cy="283" rx="14" ry="4" fill="#102a43" opacity=".25"/><path d="M423 278 L430 260 L437 278Z" fill="#22c55e" stroke="#5b2b00" stroke-width="2"/><path d="M419 279h22v4h-22z" fill="#22c55e" stroke="#5b2b00" stroke-width="2"/><path d="M426 271h8" stroke="white" stroke-width="2" opacity=".9"/></g><g><ellipse cx="430" cy="328" rx="14" ry="4" fill="#102a43" opacity=".25"/><path d="M423 323 L430 305 L437 323Z" fill="#22c55e" stroke="#5b2b00" stroke-width="2"/><path d="M419 324h22v4h-22z" fill="#22c55e" stroke="#5b2b00" stroke-width="2"/><path d="M426 316h8" stroke="white" stroke-width="2" opacity=".9"/></g><path d="M120 290 L280 270 L410 135 L430 290 L160 142" fill="none" stroke="#102a43" stroke-width="7" opacity=".22"/><path d="M120 290 L280 270 L410 135 L430 290 L160 142" fill="none" stroke="#fff" stroke-width="4"  marker-end="url(#arrow)"/></g>
<g font-family="Arial,sans-serif"><rect x="40" y="505" width="720" height="92" rx="12" fill="white" stroke="#d8e0e8"/><text x="60" y="529" font-size="15" font-weight="700" fill="#102a43">1 jugador · intermedio · 10 min</text><line x1="530" y1="525" x2="555" y2="525" stroke="#1778d4" stroke-width="4"/><text x="563" y="530" font-size="11" fill="#486581">MOVIMIENTO</text><line x1="650" y1="525" x2="675" y2="525" stroke="#f0b800" stroke-width="4" stroke-dasharray="6 5"/><text x="683" y="530" font-size="11" fill="#486581">PASE</text><text x="60" y="557" font-size="13" fill="#334e68"><tspan x="60" dy="0">Cruza todas las puertas en orden variable. Antes de cada salida levanta la cabeza y</tspan><tspan x="60" dy="18">elige la siguiente.</tspan></text></g>
</svg>