<?xml version="1.0" encoding="UTF-8"?>
<svg xmlns="http://www.w3.org/2000/svg" width="800" height="620" viewBox="0 0 800 620" role="img" aria-labelledby="title desc">
<title id="title">IND-04 · Puertas de precisión</title><desc id="desc">Ejercicio de tecnificación de fútbol para 1 jugador: Pasa el balón por cada puerta contra la pared y controla orientado hacia la siguiente.</desc>
<defs><marker id="arrow" markerWidth="8" markerHeight="8" refX="6" refY="3" orient="auto"><path d="M0 0L6 3L0 6Z" fill="context-stroke"/></marker><pattern id="grass" width="80" height="80" patternUnits="userSpaceOnUse"><rect width="80" height="80" fill="#168447"/><rect width="40" height="80" fill="#197a43" opacity=".55"/></pattern></defs>
<rect width="800" height="620" rx="24" fill="#f3f6f8"/><text x="40" y="48" font-family="Arial,sans-serif" font-size="18" font-weight="700" fill="#1778d4">IND-04</text><text x="40" y="82" font-family="Arial,sans-serif" font-size="30" font-weight="800" fill="#102a43">Puertas de precisión</text><rect x="625" y="36" width="135" height="32" rx="16" fill="#e0efff"/><text x="692" y="57" text-anchor="middle" font-family="Arial,sans-serif" font-size="13" font-weight="700" fill="#145da0">PASE</text>
<g transform="translate(120 105)"><rect width="560" height="380" rx="12" fill="url(#grass)" stroke="#0f5933" stroke-width="5"/><path d="M20 20H540V360H20Z" fill="none" stroke="white" opacity=".55" stroke-width="2"/><g transform="translate(80 210)"><ellipse cy="27" rx="17" ry="6" fill="#102a43" opacity=".25"/><circle cy="-11" r="9" fill="#f2c7a5" stroke="white" stroke-width="2"/><path d="M-12 0Q0-8 12 0L10 20Q0 26-10 20Z" fill="#1778d4" stroke="white" stroke-width="2"/><path d="M-9 5l-12 11M9 5l12 11M-6 21l-8 18M6 21l8 18" fill="none" stroke="#1778d4" stroke-width="6" stroke-linecap="round"/><rect x="-14" y="-34" width="28" height="16" rx="8" fill="#102a43"/><text y="-22" text-anchor="middle" font-family="Arial,sans-serif" font-size="11" font-weight="800" fill="white">1</text></g><g transform="translate(105 220)"><circle r="13" fill="#fff" opacity=".22"/><circle r="9" fill="white" stroke="#16202a" stroke-width="2"/><path d="M0-4 4-1 3 4-2 6-6 1-3-3Z" fill="#16202a"/><path d="M-6 1-9 4M4-1 8-4M3 4l4 4" stroke="#16202a" stroke-width="1.4"/></g><g><rect x="455" y="195" width="90" height="12" rx="2" fill="#cbd5e1" stroke="#475569" stroke-width="2"/><path d="M470 195v12m15-12v12m15-12v12m15-12v12m15-12v12" stroke="#64748b"/></g><g><ellipse cx="180" cy="188" rx="14" ry="4" fill="#102a43" opacity=".25"/><path d="M173 183 L180 165 L187 183Z" fill="#ff7a00" stroke="#5b2b00" stroke-width="2"/><path d="M169 184h22v4h-22z" fill="#ff7a00" stroke="#5b2b00" stroke-width="2"/><path d="M176 176h8" stroke="white" stroke-width="2" opacity=".9"/></g><g><ellipse cx="180" cy="238" rx="14" ry="4" fill="#102a43" opacity=".25"/><path d="M173 233 L180 215 L187 233Z" fill="#ff7a00" stroke="#5b2b00" stroke-width="2"/><path d="M169 234h22v4h-22z" fill="#ff7a00" stroke="#5b2b00" stroke-width="2"/><path d="M176 226h8" stroke="white" stroke-width="2" opacity=".9"/></g><g><ellipse cx="275" cy="148" rx="14" ry="4" fill="#102a43" opacity=".25"/><path d="M268 143 L275 125 L282 143Z" fill="#ff7a00" stroke="#5b2b00" stroke-width="2"/><path d="M264 144h22v4h-22z" fill="#ff7a00" stroke="#5b2b00" stroke-width="2"/><path d="M271 136h8" stroke="white" stroke-width="2" opacity=".9"/></g><g><ellipse cx="275" cy="198" rx="14" ry="4" fill="#102a43" opacity=".25"/><path d="M268 193 L275 175 L282 193Z" fill="#ff7a00" stroke="#5b2b00" stroke-width="2"/><path d="M264 194h22v4h-22z" fill="#ff7a00" stroke="#5b2b00" stroke-width="2"/><path d="M271 186h8" stroke="white" stroke-width="2" opacity=".9"/></g><g><ellipse cx="360" cy="188" rx="14" ry="4" fill="#102a43" opacity=".25"/><path d="M353 183 L360 165 L367 183Z" fill="#ff7a00" stroke="#5b2b00" stroke-width="2"/><path d="M349 184h22v4h-22z" fill="#ff7a00" stroke="#5b2b00" stroke-width="2"/><path d="M356 176h8" stroke="white" stroke-width="2" opacity=".9"/></g><g><ellipse cx="360" cy="238" rx="14" ry="4" fill="#102a43" opacity=".25"/><path d="M353 233 L360 215 L367 233Z" fill="#ff7a00" stroke="#5b2b00" stroke-width="2"/><path d="M349 234h22v4h-22z" fill="#ff7a00" stroke="#5b2b00" stroke-width="2"/><path d="M356 226h8" stroke="white" stroke-width="2" opacity=".9"/></g><path d="M110 220 L460 205" fill="none" stroke="#102a43" stroke-width="7" opacity=".22"/><path d="M110 220 L460 205" fill="none" stroke="#ffd43b" stroke-width="4" stroke-dasharray="9 8" marker-end="url(#arrow)"/><path d="M115 235 C210 315 315 300 380 235" fill="none" stroke="#102a43" stroke-width="7" opacity=".22"/><path d="M115 235 C210 315 315 300 380 235" fill="none" stroke="#fff" stroke-width="4"  marker-end="url(#arrow)"/></g>
<g font-family="Arial,sans-serif"><rect x="40" y="505" width="720" height="92" rx="12" fill="white" stroke="#d8e0e8"/><text x="60" y="529" font-size="15" font-weight="700" fill="#102a43">1 jugador · iniciación · 10 min</text><line x1="530" y1="525" x2="555" y2="525" stroke="#1778d4" stroke-width="4"/><text x="563" y="530" font-size="11" fill="#486581">MOVIMIENTO</text><line x1="650" y1="525" x2="675" y2="525" stroke="#f0b800" stroke-width="4" stroke-dasharray="6 5"/><text x="683" y="530" font-size="11" fill="#486581">PASE</text><text x="60" y="557" font-size="13" fill="#334e68"><tspan x="60" dy="0">Pasa el balón por cada puerta contra la pared y controla orientado hacia la siguiente.</tspan></text></g>
</svg>