<?xml version="1.0" encoding="UTF-8"?>
<svg xmlns="http://www.w3.org/2000/svg" width="800" height="620" viewBox="0 0 800 620" role="img" aria-labelledby="title desc">
<title id="title">IND-16 · Circuito de pierna débil</title><desc id="desc">Ejercicio de tecnificación de fútbol para 1 jugador: Completa el circuito usando únicamente el pie menos hábil: conducción, giro y pase final.</desc>
<defs><marker id="arrow" markerWidth="8" markerHeight="8" refX="6" refY="3" orient="auto"><path d="M0 0L6 3L0 6Z" fill="context-stroke"/></marker><pattern id="grass" width="80" height="80" patternUnits="userSpaceOnUse"><rect width="80" height="80" fill="#168447"/><rect width="40" height="80" fill="#197a43" opacity=".55"/></pattern></defs>
<rect width="800" height="620" rx="24" fill="#f3f6f8"/><text x="40" y="48" font-family="Arial,sans-serif" font-size="18" font-weight="700" fill="#1778d4">IND-16</text><text x="40" y="82" font-family="Arial,sans-serif" font-size="30" font-weight="800" fill="#102a43">Circuito de pierna débil</text><rect x="625" y="36" width="135" height="32" rx="16" fill="#e0efff"/><text x="692" y="57" text-anchor="middle" font-family="Arial,sans-serif" font-size="13" font-weight="700" fill="#145da0">CONDUCCIÓN</text>
<g transform="translate(120 105)"><rect width="560" height="380" rx="12" fill="url(#grass)" stroke="#0f5933" stroke-width="5"/><path d="M20 20H540V360H20Z" fill="none" stroke="white" opacity=".55" stroke-width="2"/><g transform="translate(80 265)"><ellipse cy="27" rx="17" ry="6" fill="#102a43" opacity=".25"/><circle cy="-11" r="9" fill="#f2c7a5" stroke="white" stroke-width="2"/><path d="M-12 0Q0-8 12 0L10 20Q0 26-10 20Z" fill="#1778d4" stroke="white" stroke-width="2"/><path d="M-9 5l-12 11M9 5l12 11M-6 21l-8 18M6 21l8 18" fill="none" stroke="#1778d4" stroke-width="6" stroke-linecap="round"/><rect x="-14" y="-34" width="28" height="16" rx="8" fill="#102a43"/><text y="-22" text-anchor="middle" font-family="Arial,sans-serif" font-size="11" font-weight="800" fill="white">1</text></g><g transform="translate(105 275)"><circle r="13" fill="#fff" opacity=".22"/><circle r="9" fill="white" stroke="#16202a" stroke-width="2"/><path d="M0-4 4-1 3 4-2 6-6 1-3-3Z" fill="#16202a"/><path d="M-6 1-9 4M4-1 8-4M3 4l4 4" stroke="#16202a" stroke-width="1.4"/></g><g><ellipse cx="155" cy="263" rx="14" ry="4" fill="#102a43" opacity=".25"/><path d="M148 258 L155 240 L162 258Z" fill="#ff7a00" stroke="#5b2b00" stroke-width="2"/><path d="M144 259h22v4h-22z" fill="#ff7a00" stroke="#5b2b00" stroke-width="2"/><path d="M151 251h8" stroke="white" stroke-width="2" opacity=".9"/></g><g><ellipse cx="220" cy="203" rx="14" ry="4" fill="#102a43" opacity=".25"/><path d="M213 198 L220 180 L227 198Z" fill="#ff7a00" stroke="#5b2b00" stroke-width="2"/><path d="M209 199h22v4h-22z" fill="#ff7a00" stroke="#5b2b00" stroke-width="2"/><path d="M216 191h8" stroke="white" stroke-width="2" opacity=".9"/></g><g><ellipse cx="285" cy="263" rx="14" ry="4" fill="#102a43" opacity=".25"/><path d="M278 258 L285 240 L292 258Z" fill="#ff7a00" stroke="#5b2b00" stroke-width="2"/><path d="M274 259h22v4h-22z" fill="#ff7a00" stroke="#5b2b00" stroke-width="2"/><path d="M281 251h8" stroke="white" stroke-width="2" opacity=".9"/></g><g><ellipse cx="350" cy="203" rx="14" ry="4" fill="#102a43" opacity=".25"/><path d="M343 198 L350 180 L357 198Z" fill="#ff7a00" stroke="#5b2b00" stroke-width="2"/><path d="M339 199h22v4h-22z" fill="#ff7a00" stroke="#5b2b00" stroke-width="2"/><path d="M346 191h8" stroke="white" stroke-width="2" opacity=".9"/></g><g><ellipse cx="415" cy="263" rx="14" ry="4" fill="#102a43" opacity=".25"/><path d="M408 258 L415 240 L422 258Z" fill="#ff7a00" stroke="#5b2b00" stroke-width="2"/><path d="M404 259h22v4h-22z" fill="#ff7a00" stroke="#5b2b00" stroke-width="2"/><path d="M411 251h8" stroke="white" stroke-width="2" opacity=".9"/></g><g><ellipse cx="470" cy="203" rx="14" ry="4" fill="#102a43" opacity=".25"/><path d="M463 198 L470 180 L477 198Z" fill="#ff7a00" stroke="#5b2b00" stroke-width="2"/><path d="M459 199h22v4h-22z" fill="#ff7a00" stroke="#5b2b00" stroke-width="2"/><path d="M466 191h8" stroke="white" stroke-width="2" opacity=".9"/></g><g><rect x="455" y="95" width="70" height="12" rx="2" fill="#cbd5e1" stroke="#475569" stroke-width="2"/><path d="M470 95v12m15-12v12m15-12v12m15-12v12m15-12v12" stroke="#64748b"/></g><path d="M110 270 C155 295 175 175 220 190 S245 280 285 250 S320 165 350 190 S385 280 420 250" fill="none" stroke="#102a43" stroke-width="7" opacity=".22"/><path d="M110 270 C155 295 175 175 220 190 S245 280 285 250 S320 165 350 190 S385 280 420 250" fill="none" stroke="#fff" stroke-width="4"  marker-end="url(#arrow)"/><path d="M425 240 L470 105" fill="none" stroke="#102a43" stroke-width="7" opacity=".22"/><path d="M425 240 L470 105" fill="none" stroke="#ffd43b" stroke-width="4" stroke-dasharray="9 8" marker-end="url(#arrow)"/></g>
<g font-family="Arial,sans-serif"><rect x="40" y="505" width="720" height="92" rx="12" fill="white" stroke="#d8e0e8"/><text x="60" y="529" font-size="15" font-weight="700" fill="#102a43">1 jugador · intermedio · 12 min</text><line x1="530" y1="525" x2="555" y2="525" stroke="#1778d4" stroke-width="4"/><text x="563" y="530" font-size="11" fill="#486581">MOVIMIENTO</text><line x1="650" y1="525" x2="675" y2="525" stroke="#f0b800" stroke-width="4" stroke-dasharray="6 5"/><text x="683" y="530" font-size="11" fill="#486581">PASE</text><text x="60" y="557" font-size="13" fill="#334e68"><tspan x="60" dy="0">Completa el circuito usando únicamente el pie menos hábil: conducción, giro y pase</tspan><tspan x="60" dy="18">final.</tspan></text></g>
</svg>