<?xml version="1.0" encoding="UTF-8"?>
<svg xmlns="http://www.w3.org/2000/svg" width="800" height="620" viewBox="0 0 800 620" role="img" aria-labelledby="title desc">
<title id="title">PAR-21 · Conducción en espejo con cambios</title><desc id="desc">Ejercicio de tecnificación de fútbol para 2 jugadores: Uno marca cambios de dirección y de ritmo dentro de su zona y el otro los replica al instante. Cambiad de líder cada 40 segundos.</desc>
<defs><marker id="arrow" markerWidth="8" markerHeight="8" refX="6" refY="3" orient="auto"><path d="M0 0L6 3L0 6Z" fill="context-stroke"/></marker><pattern id="grass" width="80" height="80" patternUnits="userSpaceOnUse"><rect width="80" height="80" fill="#168447"/><rect width="40" height="80" fill="#197a43" opacity=".55"/></pattern></defs>
<rect width="800" height="620" rx="24" fill="#f3f6f8"/><text x="40" y="48" font-family="Arial,sans-serif" font-size="18" font-weight="700" fill="#1778d4">PAR-21</text><text x="40" y="82" font-family="Arial,sans-serif" font-size="30" font-weight="800" fill="#102a43">Conducción en espejo con cambios</text><rect x="625" y="36" width="135" height="32" rx="16" fill="#e0efff"/><text x="692" y="57" text-anchor="middle" font-family="Arial,sans-serif" font-size="13" font-weight="700" fill="#145da0">CONDUCCIÓN</text>
<g transform="translate(120 105)"><rect width="560" height="380" rx="12" fill="url(#grass)" stroke="#0f5933" stroke-width="5"/><path d="M20 20H540V360H20Z" fill="none" stroke="white" opacity=".55" stroke-width="2"/><g transform="translate(180 215)"><ellipse cy="27" rx="17" ry="6" fill="#102a43" opacity=".25"/><circle cy="-11" r="9" fill="#f2c7a5" stroke="white" stroke-width="2"/><path d="M-12 0Q0-8 12 0L10 20Q0 26-10 20Z" fill="#1778d4" stroke="white" stroke-width="2"/><path d="M-9 5l-12 11M9 5l12 11M-6 21l-8 18M6 21l8 18" fill="none" stroke="#1778d4" stroke-width="6" stroke-linecap="round"/><rect x="-14" y="-34" width="28" height="16" rx="8" fill="#102a43"/><text y="-22" text-anchor="middle" font-family="Arial,sans-serif" font-size="11" font-weight="800" fill="white">A</text></g><g transform="translate(380 215)"><ellipse cy="27" rx="17" ry="6" fill="#102a43" opacity=".25"/><circle cy="-11" r="9" fill="#f2c7a5" stroke="white" stroke-width="2"/><path d="M-12 0Q0-8 12 0L10 20Q0 26-10 20Z" fill="#e63946" stroke="white" stroke-width="2"/><path d="M-9 5l-12 11M9 5l12 11M-6 21l-8 18M6 21l8 18" fill="none" stroke="#e63946" stroke-width="6" stroke-linecap="round"/><rect x="-14" y="-34" width="28" height="16" rx="8" fill="#102a43"/><text y="-22" text-anchor="middle" font-family="Arial,sans-serif" font-size="11" font-weight="800" fill="white">B</text></g><g transform="translate(205 225)"><circle r="13" fill="#fff" opacity=".22"/><circle r="9" fill="white" stroke="#16202a" stroke-width="2"/><path d="M0-4 4-1 3 4-2 6-6 1-3-3Z" fill="#16202a"/><path d="M-6 1-9 4M4-1 8-4M3 4l4 4" stroke="#16202a" stroke-width="1.4"/></g><g transform="translate(405 225)"><circle r="13" fill="#fff" opacity=".22"/><circle r="9" fill="white" stroke="#16202a" stroke-width="2"/><path d="M0-4 4-1 3 4-2 6-6 1-3-3Z" fill="#16202a"/><path d="M-6 1-9 4M4-1 8-4M3 4l4 4" stroke="#16202a" stroke-width="1.4"/></g><g><ellipse cx="90" cy="128" rx="14" ry="4" fill="#102a43" opacity=".25"/><path d="M83 123 L90 105 L97 123Z" fill="#ff7a00" stroke="#5b2b00" stroke-width="2"/><path d="M79 124h22v4h-22z" fill="#ff7a00" stroke="#5b2b00" stroke-width="2"/><path d="M86 116h8" stroke="white" stroke-width="2" opacity=".9"/></g><g><ellipse cx="250" cy="128" rx="14" ry="4" fill="#102a43" opacity=".25"/><path d="M243 123 L250 105 L257 123Z" fill="#ff7a00" stroke="#5b2b00" stroke-width="2"/><path d="M239 124h22v4h-22z" fill="#ff7a00" stroke="#5b2b00" stroke-width="2"/><path d="M246 116h8" stroke="white" stroke-width="2" opacity=".9"/></g><g><ellipse cx="250" cy="333" rx="14" ry="4" fill="#102a43" opacity=".25"/><path d="M243 328 L250 310 L257 328Z" fill="#ff7a00" stroke="#5b2b00" stroke-width="2"/><path d="M239 329h22v4h-22z" fill="#ff7a00" stroke="#5b2b00" stroke-width="2"/><path d="M246 321h8" stroke="white" stroke-width="2" opacity=".9"/></g><g><ellipse cx="90" cy="333" rx="14" ry="4" fill="#102a43" opacity=".25"/><path d="M83 328 L90 310 L97 328Z" fill="#ff7a00" stroke="#5b2b00" stroke-width="2"/><path d="M79 329h22v4h-22z" fill="#ff7a00" stroke="#5b2b00" stroke-width="2"/><path d="M86 321h8" stroke="white" stroke-width="2" opacity=".9"/></g><g><ellipse cx="310" cy="128" rx="14" ry="4" fill="#102a43" opacity=".25"/><path d="M303 123 L310 105 L317 123Z" fill="#ff7a00" stroke="#5b2b00" stroke-width="2"/><path d="M299 124h22v4h-22z" fill="#ff7a00" stroke="#5b2b00" stroke-width="2"/><path d="M306 116h8" stroke="white" stroke-width="2" opacity=".9"/></g><g><ellipse cx="470" cy="128" rx="14" ry="4" fill="#102a43" opacity=".25"/><path d="M463 123 L470 105 L477 123Z" fill="#ff7a00" stroke="#5b2b00" stroke-width="2"/><path d="M459 124h22v4h-22z" fill="#ff7a00" stroke="#5b2b00" stroke-width="2"/><path d="M466 116h8" stroke="white" stroke-width="2" opacity=".9"/></g><g><ellipse cx="470" cy="333" rx="14" ry="4" fill="#102a43" opacity=".25"/><path d="M463 328 L470 310 L477 328Z" fill="#ff7a00" stroke="#5b2b00" stroke-width="2"/><path d="M459 329h22v4h-22z" fill="#ff7a00" stroke="#5b2b00" stroke-width="2"/><path d="M466 321h8" stroke="white" stroke-width="2" opacity=".9"/></g><g><ellipse cx="310" cy="333" rx="14" ry="4" fill="#102a43" opacity=".25"/><path d="M303 328 L310 310 L317 328Z" fill="#ff7a00" stroke="#5b2b00" stroke-width="2"/><path d="M299 329h22v4h-22z" fill="#ff7a00" stroke="#5b2b00" stroke-width="2"/><path d="M306 321h8" stroke="white" stroke-width="2" opacity=".9"/></g><path d="M205 225 C230 175 145 150 145 225" fill="none" stroke="#102a43" stroke-width="7" opacity=".22"/><path d="M205 225 C230 175 145 150 145 225" fill="none" stroke="#fff" stroke-width="4"  marker-end="url(#arrow)"/><path d="M405 225 C430 175 345 150 345 225" fill="none" stroke="#102a43" stroke-width="7" opacity=".22"/><path d="M405 225 C430 175 345 150 345 225" fill="none" stroke="#fff" stroke-width="4"  marker-end="url(#arrow)"/></g>
<g font-family="Arial,sans-serif"><rect x="40" y="505" width="720" height="92" rx="12" fill="white" stroke="#d8e0e8"/><text x="60" y="529" font-size="15" font-weight="700" fill="#102a43">2 jugadores · avanzado · 10 min</text><line x1="530" y1="525" x2="555" y2="525" stroke="#1778d4" stroke-width="4"/><text x="563" y="530" font-size="11" fill="#486581">MOVIMIENTO</text><line x1="650" y1="525" x2="675" y2="525" stroke="#f0b800" stroke-width="4" stroke-dasharray="6 5"/><text x="683" y="530" font-size="11" fill="#486581">PASE</text><text x="60" y="557" font-size="13" fill="#334e68"><tspan x="60" dy="0">Uno marca cambios de dirección y de ritmo dentro de su zona y el otro los replica al</tspan><tspan x="60" dy="18">instante. Cambiad de líder cada 40 segundos.</tspan></text></g>
</svg>