<?xml version="1.0" encoding="UTF-8"?>
<svg xmlns="http://www.w3.org/2000/svg" width="800" height="620" viewBox="0 0 800 620" role="img" aria-labelledby="title desc">
<title id="title">PAR-22 · Ruptura, apoyo y descarga</title><desc id="desc">Ejercicio de tecnificación de fútbol para 2 jugadores: B rompe al espacio y recibe de cara; descarga al apoyo de A, que llega desde atrás para el pase final.</desc>
<defs><marker id="arrow" markerWidth="8" markerHeight="8" refX="6" refY="3" orient="auto"><path d="M0 0L6 3L0 6Z" fill="context-stroke"/></marker><pattern id="grass" width="80" height="80" patternUnits="userSpaceOnUse"><rect width="80" height="80" fill="#168447"/><rect width="40" height="80" fill="#197a43" opacity=".55"/></pattern></defs>
<rect width="800" height="620" rx="24" fill="#f3f6f8"/><text x="40" y="48" font-family="Arial,sans-serif" font-size="18" font-weight="700" fill="#1778d4">PAR-22</text><text x="40" y="82" font-family="Arial,sans-serif" font-size="30" font-weight="800" fill="#102a43">Ruptura, apoyo y descarga</text><rect x="625" y="36" width="135" height="32" rx="16" fill="#e0efff"/><text x="692" y="57" text-anchor="middle" font-family="Arial,sans-serif" font-size="13" font-weight="700" fill="#145da0">DESMARQUE</text>
<g transform="translate(120 105)"><rect width="560" height="380" rx="12" fill="url(#grass)" stroke="#0f5933" stroke-width="5"/><path d="M20 20H540V360H20Z" fill="none" stroke="white" opacity=".55" stroke-width="2"/><g transform="translate(95 285)"><ellipse cy="27" rx="17" ry="6" fill="#102a43" opacity=".25"/><circle cy="-11" r="9" fill="#f2c7a5" stroke="white" stroke-width="2"/><path d="M-12 0Q0-8 12 0L10 20Q0 26-10 20Z" fill="#1778d4" stroke="white" stroke-width="2"/><path d="M-9 5l-12 11M9 5l12 11M-6 21l-8 18M6 21l8 18" fill="none" stroke="#1778d4" stroke-width="6" stroke-linecap="round"/><rect x="-14" y="-34" width="28" height="16" rx="8" fill="#102a43"/><text y="-22" text-anchor="middle" font-family="Arial,sans-serif" font-size="11" font-weight="800" fill="white">A</text></g><g transform="translate(280 260)"><ellipse cy="27" rx="17" ry="6" fill="#102a43" opacity=".25"/><circle cy="-11" r="9" fill="#f2c7a5" stroke="white" stroke-width="2"/><path d="M-12 0Q0-8 12 0L10 20Q0 26-10 20Z" fill="#e63946" stroke="white" stroke-width="2"/><path d="M-9 5l-12 11M9 5l12 11M-6 21l-8 18M6 21l8 18" fill="none" stroke="#e63946" stroke-width="6" stroke-linecap="round"/><rect x="-14" y="-34" width="28" height="16" rx="8" fill="#102a43"/><text y="-22" text-anchor="middle" font-family="Arial,sans-serif" font-size="11" font-weight="800" fill="white">B</text></g><g transform="translate(120 295)"><circle r="13" fill="#fff" opacity=".22"/><circle r="9" fill="white" stroke="#16202a" stroke-width="2"/><path d="M0-4 4-1 3 4-2 6-6 1-3-3Z" fill="#16202a"/><path d="M-6 1-9 4M4-1 8-4M3 4l4 4" stroke="#16202a" stroke-width="1.4"/></g><g><ellipse cx="210" cy="233" rx="14" ry="4" fill="#102a43" opacity=".25"/><path d="M203 228 L210 210 L217 228Z" fill="#ff7a00" stroke="#5b2b00" stroke-width="2"/><path d="M199 229h22v4h-22z" fill="#ff7a00" stroke="#5b2b00" stroke-width="2"/><path d="M206 221h8" stroke="white" stroke-width="2" opacity=".9"/></g><g><ellipse cx="355" cy="163" rx="14" ry="4" fill="#102a43" opacity=".25"/><path d="M348 158 L355 140 L362 158Z" fill="#ff7a00" stroke="#5b2b00" stroke-width="2"/><path d="M344 159h22v4h-22z" fill="#ff7a00" stroke="#5b2b00" stroke-width="2"/><path d="M351 151h8" stroke="white" stroke-width="2" opacity=".9"/></g><g><ellipse cx="450" cy="123" rx="14" ry="4" fill="#102a43" opacity=".25"/><path d="M443 118 L450 100 L457 118Z" fill="#ff7a00" stroke="#5b2b00" stroke-width="2"/><path d="M439 119h22v4h-22z" fill="#ff7a00" stroke="#5b2b00" stroke-width="2"/><path d="M446 111h8" stroke="white" stroke-width="2" opacity=".9"/></g><g><ellipse cx="190" cy="333" rx="14" ry="4" fill="#102a43" opacity=".25"/><path d="M183 328 L190 310 L197 328Z" fill="#ff7a00" stroke="#5b2b00" stroke-width="2"/><path d="M179 329h22v4h-22z" fill="#ff7a00" stroke="#5b2b00" stroke-width="2"/><path d="M186 321h8" stroke="white" stroke-width="2" opacity=".9"/></g><g><path d="M390 70v45h120v-45" fill="none" stroke="white" stroke-width="5"/><path d="M390 115l12 12h96l12-12M410 115v10M430 115v10M450 115v10M470 115v10" fill="none" stroke="#dbeafe" stroke-width="2"/></g><path d="M285 250 C320 190 360 150 425 118" fill="none" stroke="#102a43" stroke-width="7" opacity=".22"/><path d="M285 250 C320 190 360 150 425 118" fill="none" stroke="#fff" stroke-width="4"  marker-end="url(#arrow)"/><path d="M120 275 L250 250" fill="none" stroke="#102a43" stroke-width="7" opacity=".22"/><path d="M120 275 L250 250" fill="none" stroke="#fff" stroke-width="4"  marker-end="url(#arrow)"/><path d="M125 285 C250 250 340 175 425 120" fill="none" stroke="#102a43" stroke-width="7" opacity=".22"/><path d="M125 285 C250 250 340 175 425 120" fill="none" stroke="#ffd43b" stroke-width="4" stroke-dasharray="9 8" marker-end="url(#arrow)"/><path d="M290 250 L245 255" fill="none" stroke="#102a43" stroke-width="7" opacity=".22"/><path d="M290 250 L245 255" fill="none" stroke="#ffd43b" stroke-width="4" stroke-dasharray="9 8" marker-end="url(#arrow)"/></g>
<g font-family="Arial,sans-serif"><rect x="40" y="505" width="720" height="92" rx="12" fill="white" stroke="#d8e0e8"/><text x="60" y="529" font-size="15" font-weight="700" fill="#102a43">2 jugadores · avanzado · 12 min</text><line x1="530" y1="525" x2="555" y2="525" stroke="#1778d4" stroke-width="4"/><text x="563" y="530" font-size="11" fill="#486581">MOVIMIENTO</text><line x1="650" y1="525" x2="675" y2="525" stroke="#f0b800" stroke-width="4" stroke-dasharray="6 5"/><text x="683" y="530" font-size="11" fill="#486581">PASE</text><text x="60" y="557" font-size="13" fill="#334e68"><tspan x="60" dy="0">B rompe al espacio y recibe de cara; descarga al apoyo de A, que llega desde atrás para</tspan><tspan x="60" dy="18">el pase final.</tspan></text></g>
</svg>